<svg xmlns="http://www.w3.org/2000/svg" data-name="Layer 1" viewBox="0 0 100 125" x="0px" y="0px"><title>Artboard 1</title><path d="M28.47,24.27h16q10.93,0,15.87,3.11t4.94,9.9a12.47,12.47,0,0,1-2.16,7.56,8.64,8.64,0,0,1-5.75,3.55v.35q4.89,1.09,7,4.08a13.27,13.27,0,0,1,2.16,7.95,13.09,13.09,0,0,1-5.08,11q-5.08,3.94-13.8,3.94H28.47Zm10.9,20.36H45.7q4.43,0,6.42-1.37a5.12,5.12,0,0,0,2-4.54,4.54,4.54,0,0,0-2.16-4.24Q49.77,33.2,45.1,33.2H39.37Zm0,8.65V66.67h7.1q4.5,0,6.64-1.72a6.36,6.36,0,0,0,2.14-5.27q0-6.4-9.14-6.4Z"/><text x="0" y="115" fill="#000000" font-size="5px" font-weight="bold" font-family="'Helvetica Neue', Helvetica, Arial-Unicode, Arial, Sans-serif">Created by Roman Shvets</text><text x="0" y="120" fill="#000000" font-size="5px" font-weight="bold" font-family="'Helvetica Neue', Helvetica, Arial-Unicode, Arial, Sans-serif">from the Noun Project</text></svg>